# Blender v2.78 (sub 0) OBJ File: 'Új jelenet.obj'
# www.blender.org
mtllib cube.mtl
o Object.1
v -1.685750 0.000003 -1.478390
v -1.941841 0.000003 -1.121098
v -1.778883 0.000003 -1.364971
v 0.000009 4.484459 0.000017
v -1.585468 0.000003 -1.585487
v -1.478388 0.000003 -1.685787
v -2.010962 0.000003 -0.991702
v -1.864335 0.000003 -1.245701
v -2.071520 0.000003 -0.858051
v -2.123250 0.000003 -0.720728
v -1.364971 0.000004 -1.778865
v -1.245708 0.000004 -1.864336
v -2.165800 0.000002 -0.580315
v -1.121106 0.000004 -1.941817
v -2.199168 0.000002 -0.437421
v -2.223002 0.000002 -0.292656
v -0.991701 0.000004 -2.010981
v -0.858050 0.000004 -2.071539
v -2.237392 0.000002 -0.146638
v -0.720727 0.000004 -2.123224
v -2.242247 0.000002 0.000016
v -2.237392 0.000002 0.146662
v -0.580322 0.000004 -2.165818
v -0.437429 0.000004 -2.199134
v -2.223002 0.000002 0.292681
v -0.292655 0.000004 -2.223031
v -2.199168 0.000001 0.437454
v -2.165800 0.000001 0.580349
v -0.146637 0.000004 -2.237420
v 0.000009 0.000004 -2.242213
v -2.123250 0.000001 0.720761
v 0.146663 0.000004 -2.237420
v -2.071520 0.000001 0.858120
v -2.010962 0.000001 0.991771
v 0.292682 0.000004 -2.223031
v 0.437456 0.000004 -2.199134
v -1.941841 0.000001 1.121097
v 0.580350 0.000004 -2.165818
v -1.864335 0.000001 1.245744
v -1.778883 0.000001 1.365005
v 0.720753 0.000004 -2.123224
v 0.858077 0.000004 -2.071539
v -1.685750 0.000000 1.478441
v 0.991728 0.000004 -2.010981
v -1.585468 0.000000 1.585520
v -1.478388 0.000000 1.685802
v 1.121133 0.000004 -1.941817
v 1.245726 0.000004 -1.864336
v -1.364971 0.000000 1.778935
v 1.364998 0.000004 -1.778865
v -1.245699 0.000000 1.864387
v -1.121106 -0.000000 1.941806
v 1.478424 0.000003 -1.685787
v 1.585513 0.000003 -1.585487
v -0.991701 -0.000000 2.011015
v 1.685813 0.000003 -1.478390
v -0.858050 -0.000000 2.071573
v -0.720727 -0.000000 2.123214
v 1.778892 0.000003 -1.364971
v 1.864362 0.000003 -1.245701
v -0.580322 -0.000000 2.165852
v 1.941842 0.000003 -1.121098
v -0.437420 -0.000000 2.199132
v -0.292655 -0.000000 2.223056
v 2.011007 0.000003 -0.991702
v 2.071564 0.000003 -0.858051
v -0.146637 -0.000000 2.237444
v 2.123251 0.000003 -0.720728
v 0.000009 -0.000000 2.242212
v 0.146663 -0.000000 2.237444
v 2.165844 0.000002 -0.580315
v 2.199160 0.000002 -0.437421
v 0.292682 -0.000000 2.223056
v 2.223065 0.000002 -0.292656
v 0.437456 -0.000000 2.199132
v 0.580350 -0.000000 2.165852
v 2.237445 0.000002 -0.146638
v 2.242248 0.000002 0.000016
v 0.720753 -0.000000 2.123214
v 2.237445 0.000002 0.146662
v 0.858077 -0.000000 2.071573
v 0.991728 -0.000000 2.011015
v 2.223065 0.000002 0.292681
v 2.199160 0.000001 0.437454
v 1.121124 -0.000000 1.941806
v 2.165844 0.000001 0.580349
v 1.245726 0.000000 1.864387
v 1.364998 0.000000 1.778935
v 2.123251 0.000001 0.720761
v 2.071564 0.000001 0.858120
v 1.478415 0.000000 1.685802
v 2.011007 0.000001 0.991771
v 1.585513 0.000000 1.585520
v 1.685813 0.000000 1.478441
v 1.941842 0.000001 1.121097
v 1.864362 0.000001 1.245744
v 1.778892 0.000001 1.365005
vn 0.0000 -1.0000 -0.0000
vn -0.6913 0.4470 -0.5677
vn -0.6530 0.4470 -0.6114
vn -0.6115 0.4470 -0.6529
vn -0.7890 0.4470 -0.4215
vn -0.7596 0.4470 -0.4725
vn -0.8148 0.4470 -0.3692
vn -0.8371 0.4470 -0.3153
vn -0.8711 0.4470 -0.2034
vn -0.8826 0.4470 -0.1453
vn -0.8940 0.4470 -0.0296
vn -0.8940 0.4470 0.0296
vn -0.8826 0.4470 0.1453
vn -0.8711 0.4470 0.2034
vn -0.8371 0.4470 0.3153
vn -0.8148 0.4470 0.3692
vn -0.7596 0.4470 0.4724
vn -0.7271 0.4470 0.5210
vn -0.6529 0.4470 0.6115
vn -0.6115 0.4470 0.6529
vn -0.5210 0.4470 0.7272
vn -0.4721 0.4470 0.7598
vn -0.3692 0.4470 0.8148
vn -0.3149 0.4470 0.8373
vn -0.2029 0.4470 0.8712
vn -0.1458 0.4470 0.8826
vn -0.0291 0.4470 0.8941
vn 0.0291 0.4470 0.8941
vn 0.1458 0.4470 0.8826
vn 0.2029 0.4470 0.8712
vn 0.3149 0.4470 0.8373
vn 0.3692 0.4470 0.8148
vn 0.4721 0.4470 0.7598
vn 0.5210 0.4470 0.7272
vn 0.6114 0.4470 0.6530
vn 0.6529 0.4470 0.6115
vn 0.7271 0.4470 0.5211
vn 0.7597 0.4470 0.4722
vn 0.7888 0.4470 0.4219
vn 0.6915 0.4470 0.5674
vn 0.8148 0.4470 0.3692
vn 0.8372 0.4470 0.3150
vn 0.8560 0.4470 0.2597
vn 0.5677 0.4470 0.6913
vn 0.8712 0.4470 0.2031
vn 0.8826 0.4470 0.1457
vn 0.8902 0.4470 0.0877
vn 0.4219 0.4470 0.7888
vn 0.8940 0.4470 0.0293
vn 0.8940 0.4470 -0.0293
vn 0.8902 0.4470 -0.0877
vn 0.2599 0.4470 0.8559
vn 0.8826 0.4470 -0.1457
vn 0.8712 0.4470 -0.2031
vn 0.8560 0.4470 -0.2597
vn 0.0877 0.4470 0.8902
vn 0.8372 0.4470 -0.3151
vn 0.8148 0.4470 -0.3692
vn 0.7889 0.4470 -0.4217
vn -0.0877 0.4470 0.8902
vn 0.7596 0.4470 -0.4724
vn 0.7271 0.4470 -0.5210
vn 0.6915 0.4470 -0.5675
vn -0.2599 0.4470 0.8559
vn 0.6529 0.4470 -0.6115
vn 0.6115 0.4470 -0.6529
vn 0.5675 0.4470 -0.6915
vn -0.4219 0.4470 0.7888
vn 0.5210 0.4470 -0.7271
vn 0.4724 0.4470 -0.7596
vn 0.4217 0.4470 -0.7889
vn -0.5677 0.4470 0.6913
vn 0.3692 0.4470 -0.8148
vn 0.3151 0.4470 -0.8372
vn 0.2597 0.4470 -0.8560
vn -0.6914 0.4470 0.5676
vn 0.2031 0.4470 -0.8712
vn 0.1457 0.4470 -0.8826
vn 0.0877 0.4470 -0.8902
vn -0.7889 0.4470 0.4216
vn 0.0292 0.4470 -0.8940
vn -0.0292 0.4470 -0.8940
vn -0.0877 0.4470 -0.8902
vn -0.8561 0.4470 0.2594
vn -0.1457 0.4470 -0.8826
vn -0.2031 0.4470 -0.8712
vn -0.2597 0.4470 -0.8560
vn -0.8902 0.4470 0.0877
vn -0.3151 0.4470 -0.8372
vn -0.3692 0.4470 -0.8148
vn -0.4217 0.4470 -0.7889
vn -0.8902 0.4470 -0.0877
vn -0.4724 0.4470 -0.7596
vn -0.5211 0.4470 -0.7271
vn -0.8561 0.4470 -0.2594
vn -0.5675 0.4470 -0.6915
vn -0.7272 0.4470 -0.5210
usemtl Orange
s off
f 1//1 2//1 3//1
f 3//2 4//2 1//2
f 1//3 4//3 5//3
f 5//4 4//4 6//4
f 5//1 6//1 7//1
f 2//1 5//1 7//1
f 7//5 4//5 2//5
f 2//6 4//6 8//6
f 9//7 4//7 7//7
f 10//8 4//8 9//8
f 9//1 11//1 10//1
f 11//1 12//1 10//1
f 10//1 12//1 13//1
f 12//1 14//1 13//1
f 13//1 14//1 15//1
f 15//9 4//9 13//9
f 16//10 4//10 15//10
f 15//1 17//1 16//1
f 17//1 18//1 16//1
f 16//1 18//1 19//1
f 18//1 20//1 19//1
f 19//1 20//1 21//1
f 21//11 4//11 19//11
f 22//12 4//12 21//12
f 21//1 23//1 22//1
f 23//1 24//1 22//1
f 22//1 24//1 25//1
f 24//1 26//1 25//1
f 25//1 26//1 27//1
f 27//13 4//13 25//13
f 28//14 4//14 27//14
f 27//1 29//1 28//1
f 29//1 30//1 28//1
f 28//1 30//1 31//1
f 30//1 32//1 31//1
f 31//1 32//1 33//1
f 33//15 4//15 31//15
f 34//16 4//16 33//16
f 33//1 35//1 34//1
f 35//1 36//1 34//1
f 34//1 36//1 37//1
f 36//1 38//1 37//1
f 37//1 38//1 39//1
f 39//17 4//17 37//17
f 40//18 4//18 39//18
f 39//1 41//1 40//1
f 41//1 42//1 40//1
f 40//1 42//1 43//1
f 42//1 44//1 43//1
f 43//1 44//1 45//1
f 45//19 4//19 43//19
f 46//20 4//20 45//20
f 45//1 47//1 46//1
f 47//1 48//1 46//1
f 46//1 48//1 49//1
f 48//1 50//1 49//1
f 49//1 50//1 51//1
f 51//21 4//21 49//21
f 52//22 4//22 51//22
f 51//1 53//1 52//1
f 53//1 54//1 52//1
f 52//1 54//1 55//1
f 54//1 56//1 55//1
f 55//1 56//1 57//1
f 57//23 4//23 55//23
f 58//24 4//24 57//24
f 57//1 59//1 58//1
f 59//1 60//1 58//1
f 58//1 60//1 61//1
f 60//1 62//1 61//1
f 61//1 62//1 63//1
f 63//25 4//25 61//25
f 64//26 4//26 63//26
f 63//1 65//1 64//1
f 65//1 66//1 64//1
f 64//1 66//1 67//1
f 66//1 68//1 67//1
f 67//1 68//1 69//1
f 69//27 4//27 67//27
f 70//28 4//28 69//28
f 69//1 71//1 70//1
f 71//1 72//1 70//1
f 70//1 72//1 73//1
f 72//1 74//1 73//1
f 73//1 74//1 75//1
f 75//29 4//29 73//29
f 76//30 4//30 75//30
f 75//1 77//1 76//1
f 77//1 78//1 76//1
f 76//1 78//1 79//1
f 78//1 80//1 79//1
f 79//1 80//1 81//1
f 81//31 4//31 79//31
f 82//32 4//32 81//32
f 81//1 83//1 82//1
f 83//1 84//1 82//1
f 82//1 84//1 85//1
f 84//1 86//1 85//1
f 85//1 86//1 87//1
f 87//33 4//33 85//33
f 88//34 4//34 87//34
f 87//1 89//1 88//1
f 89//1 90//1 88//1
f 88//1 90//1 91//1
f 90//1 92//1 91//1
f 91//1 92//1 93//1
f 93//35 4//35 91//35
f 94//36 4//36 93//36
f 93//1 95//1 94//1
f 95//1 96//1 94//1
f 94//1 96//1 97//1
f 96//37 4//37 97//37
f 95//38 4//38 96//38
f 92//39 4//39 95//39
f 97//40 4//40 94//40
f 92//1 95//1 93//1
f 90//41 4//41 92//41
f 89//42 4//42 90//42
f 86//43 4//43 89//43
f 91//44 4//44 88//44
f 86//1 89//1 87//1
f 84//45 4//45 86//45
f 83//46 4//46 84//46
f 80//47 4//47 83//47
f 85//48 4//48 82//48
f 80//1 83//1 81//1
f 78//49 4//49 80//49
f 77//50 4//50 78//50
f 74//51 4//51 77//51
f 79//52 4//52 76//52
f 74//1 77//1 75//1
f 72//53 4//53 74//53
f 71//54 4//54 72//54
f 68//55 4//55 71//55
f 73//56 4//56 70//56
f 68//1 71//1 69//1
f 66//57 4//57 68//57
f 65//58 4//58 66//58
f 62//59 4//59 65//59
f 67//60 4//60 64//60
f 62//1 65//1 63//1
f 60//61 4//61 62//61
f 59//62 4//62 60//62
f 56//63 4//63 59//63
f 61//64 4//64 58//64
f 56//1 59//1 57//1
f 54//65 4//65 56//65
f 53//66 4//66 54//66
f 50//67 4//67 53//67
f 55//68 4//68 52//68
f 50//1 53//1 51//1
f 48//69 4//69 50//69
f 47//70 4//70 48//70
f 44//71 4//71 47//71
f 49//72 4//72 46//72
f 44//1 47//1 45//1
f 42//73 4//73 44//73
f 41//74 4//74 42//74
f 38//75 4//75 41//75
f 43//76 4//76 40//76
f 38//1 41//1 39//1
f 36//77 4//77 38//77
f 35//78 4//78 36//78
f 32//79 4//79 35//79
f 37//80 4//80 34//80
f 32//1 35//1 33//1
f 30//81 4//81 32//81
f 29//82 4//82 30//82
f 26//83 4//83 29//83
f 31//84 4//84 28//84
f 26//1 29//1 27//1
f 24//85 4//85 26//85
f 23//86 4//86 24//86
f 20//87 4//87 23//87
f 25//88 4//88 22//88
f 20//1 23//1 21//1
f 18//89 4//89 20//89
f 17//90 4//90 18//90
f 14//91 4//91 17//91
f 19//92 4//92 16//92
f 14//1 17//1 15//1
f 12//93 4//93 14//93
f 11//94 4//94 12//94
f 6//1 11//1 9//1
f 13//95 4//95 10//95
f 7//1 6//1 9//1
f 6//96 4//96 11//96
f 8//97 4//97 3//97
f 8//1 3//1 2//1
f 1//1 5//1 2//1
