# Blender v2.78 (sub 0) OBJ File: ''
# www.blender.org
mtllib cube.mtl
o Cube_Cube.002
v -2.095666 -0.000034 0.933636
v -2.095666 1.999966 0.933636
v -2.095666 -0.000034 -1.066364
v -2.095666 1.999966 -1.066364
v -0.095666 -0.000034 0.933636
v -0.095666 1.999966 0.933636
v -0.095666 -0.000034 -1.066364
v -0.095666 1.999966 -1.066364
vt 0.3333 0.3333
vt 0.6667 0.0000
vt 0.6667 0.3333
vt 0.4522 1.5000
vt 1.4522 0.5000
vt 0.4522 0.5000
vt 0.0332 1.5000
vt -0.9668 0.5000
vt 0.0332 0.5000
vt 0.3333 0.3333
vt 0.6667 0.6667
vt 0.3333 0.6667
vt 0.6667 0.3333
vt 1.0000 0.0000
vt 1.0000 0.3333
vt -0.5478 0.0332
vt 0.4522 -0.9668
vt 0.4522 0.0332
vt 0.3333 0.0000
vt 1.4522 1.5000
vt -0.9668 1.5000
vt 0.6667 0.3333
vt 0.6667 0.0000
vt -0.5478 -0.9668
vn -1.0000 0.0000 0.0000
vn 0.0000 0.0000 -1.0000
vn 1.0000 0.0000 0.0000
vn 0.0000 0.0000 1.0000
vn 0.0000 -1.0000 0.0000
vn 0.0000 1.0000 0.0000
usemtl None
s off
f 2/1/1 3/2/1 1/3/1
f 4/4/2 7/5/2 3/6/2
f 8/7/3 5/8/3 7/9/3
f 6/10/4 1/11/4 5/12/4
f 7/13/5 1/14/5 3/15/5
f 4/16/6 6/17/6 8/18/6
f 2/1/1 4/19/1 3/2/1
f 4/4/2 8/20/2 7/5/2
f 8/7/3 6/21/3 5/8/3
f 6/10/4 2/22/4 1/11/4
f 7/13/5 5/23/5 1/14/5
f 4/16/6 2/24/6 6/17/6
