# Blender v2.78 (sub 0) OBJ File: ''
# www.blender.org
mtllib test.mtl
o Cube_Cube.001
v -1.000000 -1.000000 1.000000
v -1.000000 1.000000 1.000000
v -1.000000 -1.000000 -1.000000
v -1.000000 1.000000 -1.000000
v 1.000000 -1.000000 1.000000
v 1.000000 1.000000 1.000000
v 1.000000 -1.000000 -1.000000
v 1.000000 1.000000 -1.000000
v -2.159527 -0.703509 0.703509
v -2.159527 0.703509 0.703509
v -2.159527 0.703509 -0.703509
v -2.159527 -0.703509 -0.703509
v -0.703509 -0.703509 -2.159527
v -0.703509 0.703509 -2.159527
v 0.703509 0.703509 -2.159527
v 0.703509 -0.703509 -2.159527
v 2.159527 -0.703509 -0.703509
v 2.159527 0.703509 -0.703509
v 2.159527 0.703509 0.703509
v 2.159527 -0.703509 0.703509
v 0.703509 -0.703509 2.159527
v 0.703509 0.703509 2.159527
v -0.703509 0.703509 2.159527
v -0.703509 -0.703509 2.159527
v -0.703509 -2.159527 -0.703509
v 0.703509 -2.159527 -0.703509
v 0.703509 -2.159527 0.703509
v -0.703509 -2.159527 0.703509
v 0.703509 2.159527 -0.703509
v -0.703509 2.159527 -0.703509
v -0.703509 2.159527 0.703509
v 0.703509 2.159527 0.703509
v -2.159527 1.000000 1.000000
v -2.159527 -1.000000 1.000000
v -2.159527 1.000000 -1.000000
v -2.159527 -1.000000 -1.000000
v -1.000000 1.000000 -2.159527
v -1.000000 -1.000000 -2.159527
v 1.000000 1.000000 -2.159527
v 1.000000 -1.000000 -2.159527
v 2.159527 1.000000 -1.000000
v 2.159527 -1.000000 -1.000000
v 2.159527 1.000000 1.000000
v 2.159527 -1.000000 1.000000
v 1.000000 1.000000 2.159527
v 1.000000 -1.000000 2.159527
v -1.000000 1.000000 2.159527
v -1.000000 -1.000000 2.159527
v 1.000000 -2.159527 -1.000000
v -1.000000 -2.159527 -1.000000
v 1.000000 -2.159527 1.000000
v -1.000000 -2.159527 1.000000
v -1.000000 2.159527 -1.000000
v 1.000000 2.159527 -1.000000
v -1.000000 2.159527 1.000000
v 1.000000 2.159527 1.000000
v -3.410339 -0.703509 0.703509
v -3.410339 0.703509 0.703509
v -3.410339 0.703509 -0.703509
v -3.410339 -0.703509 -0.703509
v -0.703509 -0.703509 -3.410339
v -0.703509 0.703509 -3.410339
v 0.703509 0.703509 -3.410339
v 0.703509 -0.703509 -3.410339
v 3.410339 -0.703509 -0.703509
v 3.410339 0.703509 -0.703509
v 3.410339 0.703509 0.703509
v 3.410339 -0.703509 0.703509
v 0.703509 -0.703509 3.410339
v 0.703509 0.703509 3.410339
v -0.703509 0.703509 3.410339
v -0.703509 -0.703509 3.410339
v -0.703509 -3.410339 -0.703509
v 0.703509 -3.410339 -0.703509
v 0.703509 -3.410339 0.703509
v -0.703509 -3.410339 0.703509
v 0.703509 3.410339 -0.703509
v -0.703509 3.410339 -0.703509
v -0.703509 3.410339 0.703509
v 0.703509 3.410339 0.703509
v -1.768167 1.597095 -1.924116
v -3.818404 1.597095 -1.924116
v -3.818404 1.597095 1.924116
v -1.768167 1.597095 1.924116
v -1.768167 -1.597095 1.924116
v -3.818404 -1.597095 1.924116
v -3.818404 -1.597095 -1.924116
v -1.768167 -1.597095 -1.924116
v 1.768167 1.597095 -1.924116
v 1.768167 1.597095 -4.155180
v -1.768167 1.597095 -4.155180
v -1.768167 1.597095 -1.924116
v -1.768167 -1.597095 -1.924116
v -1.768167 -1.597095 -4.155180
v 1.768167 -1.597095 -4.155180
v 1.768167 -1.597095 -1.924116
v 1.768167 1.597095 1.924116
v 3.818404 1.597095 1.924116
v 3.818404 1.597095 -1.924116
v 1.768167 1.597095 -1.924116
v 1.768167 -1.597095 -1.924116
v 3.818404 -1.597095 -1.924116
v 3.818404 -1.597095 1.924116
v 1.768167 -1.597095 1.924116
v -1.768167 1.597095 1.924116
v -1.768167 1.597095 4.155180
v 1.768167 1.597095 4.155180
v 1.768167 1.597095 1.924116
v 1.768167 -1.597095 1.924116
v 1.768167 -1.597095 4.155180
v -1.768167 -1.597095 4.155180
v -1.768167 -1.597095 1.924116
v -2.220952 -4.213081 -1.808241
v 2.220952 -4.213081 -1.808241
v 2.220952 -4.213081 1.808241
v -2.220952 -4.213081 1.808241
v 2.220952 4.213081 -1.808241
v -2.220952 4.213081 -1.808241
v -2.220952 4.213081 1.808241
v 2.220952 4.213081 1.808241
v -0.295560 -6.467299 -1.808241
v 0.295560 -6.467299 -1.808241
v 0.295560 -6.467299 1.808241
v -0.295560 -6.467299 1.808241
v 0.295560 6.467299 -1.808241
v -0.295560 6.467299 -1.808241
v -0.295560 6.467299 1.808241
v 0.295560 6.467299 1.808241
vt 1.0000 0.0000
vt 0.0000 1.0000
vt 0.0000 0.0000
vt 1.0000 0.0000
vt 0.0000 1.0000
vt 0.0000 0.0000
vt 1.0000 0.0000
vt 0.0000 1.0000
vt 0.0000 0.0000
vt 1.0000 0.0000
vt 0.0000 1.0000
vt 0.0000 0.0000
vt 1.0000 0.0000
vt 0.0000 1.0000
vt 0.0000 0.0000
vt 1.0000 0.0000
vt 0.0000 1.0000
vt 0.0000 0.0000
vt 1.0000 0.0000
vt 0.0000 1.0000
vt 0.0000 0.0000
vt 1.0000 0.0000
vt 0.0000 1.0000
vt 0.0000 0.0000
vt 1.0000 0.0000
vt 1.0000 0.0000
vt 1.0000 0.0000
vt 1.0000 0.0000
vt 1.0000 0.0000
vt 1.0000 0.0000
vt 1.0000 0.0000
vt 1.0000 0.0000
vt 1.0000 0.0000
vt 0.0000 1.0000
vt 0.0000 0.0000
vt 1.0000 0.0000
vt 0.0000 1.0000
vt 0.0000 0.0000
vt 1.0000 0.0000
vt 0.0000 1.0000
vt 0.0000 0.0000
vt 1.0000 0.0000
vt 0.0000 1.0000
vt 0.0000 0.0000
vt 1.0000 0.0000
vt 0.0000 1.0000
vt 0.0000 0.0000
vt 1.0000 0.0000
vt 0.0000 1.0000
vt 0.0000 0.0000
vt 1.0000 0.0000
vt 0.0000 1.0000
vt 0.0000 0.0000
vt 1.0000 0.0000
vt 0.0000 1.0000
vt 0.0000 0.0000
vt 1.0000 0.0000
vt 0.0000 1.0000
vt 0.0000 0.0000
vt 1.0000 0.0000
vt 0.0000 1.0000
vt 0.0000 0.0000
vt 1.0000 0.0000
vt 0.0000 1.0000
vt 0.0000 0.0000
vt 1.0000 0.0000
vt 0.0000 1.0000
vt 0.0000 0.0000
vt 1.0000 0.0000
vt 0.0000 1.0000
vt 0.0000 0.0000
vt 1.0000 0.0000
vt 0.0000 1.0000
vt 0.0000 0.0000
vt 1.0000 0.0000
vt 0.0000 1.0000
vt 0.0000 0.0000
vt 1.0000 0.0000
vt 0.0000 1.0000
vt 0.0000 0.0000
vt 1.0000 0.0000
vt 0.0000 1.0000
vt 0.0000 0.0000
vt 1.0000 0.0000
vt 0.0000 1.0000
vt 0.0000 0.0000
vt 1.0000 0.0000
vt 0.0000 1.0000
vt 0.0000 0.0000
vt 1.0000 0.0000
vt 0.0000 1.0000
vt 0.0000 0.0000
vt 1.0000 0.0000
vt 0.0000 1.0000
vt 0.0000 0.0000
vt 1.0000 0.0000
vt 0.0000 1.0000
vt 0.0000 0.0000
vt 1.0000 0.0000
vt 0.0000 1.0000
vt 0.0000 0.0000
vt 1.0000 0.0000
vt 0.0000 1.0000
vt 0.0000 0.0000
vt 1.0000 0.0000
vt 0.0000 1.0000
vt 0.0000 0.0000
vt 0.0000 1.0000
vt 1.0000 0.0000
vt 0.0000 1.0000
vt 1.0000 0.0000
vt 0.0000 1.0000
vt 1.0000 0.0000
vt 0.0000 1.0000
vt 1.0000 0.0000
vt 0.0000 1.0000
vt 0.0000 0.0000
vt 0.0000 1.0000
vt 1.0000 0.0000
vt 0.0000 1.0000
vt 1.0000 0.0000
vt 0.0000 1.0000
vt 1.0000 0.0000
vt 0.0000 1.0000
vt 1.0000 0.0000
vt 0.0000 1.0000
vt 0.0000 0.0000
vt 0.0000 1.0000
vt 1.0000 0.0000
vt 0.0000 1.0000
vt 1.0000 0.0000
vt 0.0000 1.0000
vt 1.0000 0.0000
vt 0.0000 1.0000
vt 1.0000 0.0000
vt 0.0000 1.0000
vt 0.0000 0.0000
vt 0.0000 1.0000
vt 1.0000 0.0000
vt 0.0000 1.0000
vt 1.0000 0.0000
vt 0.0000 1.0000
vt 1.0000 0.0000
vt 0.0000 1.0000
vt 1.0000 0.0000
vt 0.0000 0.0000
vt 1.0000 0.0000
vt 1.0000 0.0000
vt 0.0000 1.0000
vt 1.0000 0.0000
vt 0.0000 1.0000
vt 1.0000 0.0000
vt 0.0000 1.0000
vt 1.0000 0.0000
vt 0.0000 1.0000
vt 0.0000 1.0000
vt 0.0000 0.0000
vt 1.0000 0.0000
vt 0.0000 1.0000
vt 1.0000 0.0000
vt 0.0000 1.0000
vt 1.0000 0.0000
vt 0.0000 1.0000
vt 1.0000 0.0000
vt 0.0000 1.0000
vt 1.0000 0.0000
vt 0.0000 1.0000
vt 0.0000 0.0000
vt 1.0000 0.0000
vt 1.0000 1.0000
vt 1.0000 1.0000
vt 1.0000 0.0000
vt 0.0000 1.0000
vt 0.0000 0.0000
vt 1.0000 0.0000
vt 1.0000 1.0000
vt 1.0000 1.0000
vt 1.0000 0.0000
vt 0.0000 1.0000
vt 0.0000 0.0000
vt 1.0000 0.0000
vt 1.0000 1.0000
vt 1.0000 1.0000
vt 1.0000 0.0000
vt 0.0000 1.0000
vt 0.0000 0.0000
vt 1.0000 0.0000
vt 1.0000 1.0000
vt 1.0000 1.0000
vt 1.0000 0.0000
vt 0.0000 1.0000
vt 0.0000 0.0000
vt 1.0000 0.0000
vt 1.0000 1.0000
vt 1.0000 1.0000
vt 1.0000 0.0000
vt 0.0000 1.0000
vt 0.0000 0.0000
vt 1.0000 0.0000
vt 1.0000 1.0000
vt 1.0000 1.0000
vt 1.0000 0.0000
vt 0.0000 1.0000
vt 0.0000 0.0000
vt 1.0000 0.0000
vt 1.0000 1.0000
vt 1.0000 1.0000
vt 1.0000 0.0000
vt 0.0000 1.0000
vt 0.0000 0.0000
vt 1.0000 0.0000
vt 1.0000 1.0000
vt 1.0000 1.0000
vt 0.0000 0.0000
vt 1.0000 1.0000
vt 1.0000 1.0000
vt 0.0000 1.0000
vt 0.0000 0.0000
vt 0.0000 0.0000
vt 1.0000 1.0000
vt 1.0000 1.0000
vt 0.0000 1.0000
vt 1.0000 1.0000
vt 0.0000 1.0000
vt 1.0000 0.0000
vt 0.0000 1.0000
vt 0.0000 0.0000
vt 1.0000 0.0000
vt 1.0000 1.0000
vt 0.0000 1.0000
vt 1.0000 1.0000
vt 1.0000 1.0000
vt 1.0000 1.0000
vt 1.0000 1.0000
vt 1.0000 1.0000
vt 1.0000 1.0000
vt 1.0000 1.0000
vt 1.0000 1.0000
vt 1.0000 1.0000
vt 1.0000 1.0000
vt 1.0000 1.0000
vt 1.0000 1.0000
vt 1.0000 1.0000
vt 1.0000 1.0000
vt 1.0000 1.0000
vt 1.0000 1.0000
vt 1.0000 1.0000
vt 1.0000 1.0000
vt 1.0000 1.0000
vt 1.0000 1.0000
vt 1.0000 1.0000
vt 1.0000 1.0000
vt 1.0000 1.0000
vt 1.0000 1.0000
vt 1.0000 1.0000
vt 1.0000 1.0000
vt 1.0000 1.0000
vt 1.0000 1.0000
vt 1.0000 1.0000
vt 1.0000 1.0000
vt 1.0000 1.0000
vt 1.0000 1.0000
vt 1.0000 1.0000
vt 1.0000 1.0000
vt 1.0000 1.0000
vt 1.0000 1.0000
vt 1.0000 1.0000
vt 1.0000 1.0000
vn 0.0000 0.0000 1.0000
vn 0.0000 0.0000 -1.0000
vn -1.0000 0.0000 0.0000
vn 1.0000 0.0000 0.0000
vn 0.0000 -1.0000 0.0000
vn 0.0000 1.0000 0.0000
vn 0.0000 -0.8399 -0.5427
vn -0.3387 -0.9409 0.0000
vn 0.0000 -0.8399 0.5427
vn 0.6137 0.7895 0.0000
vn 0.0000 0.8399 0.5427
vn -0.3387 0.9409 0.0000
vn 0.0000 0.8399 -0.5427
vn 0.6137 -0.7895 0.0000
vn 0.0000 -0.9580 -0.2866
vn -0.6137 -0.7895 0.0000
vn -0.6137 0.7895 0.0000
vn 0.0000 0.9580 -0.2866
vn 0.3387 -0.9409 0.0000
vn 0.3387 0.9409 0.0000
vn 0.0000 -0.9580 0.2866
vn 0.0000 0.9580 0.2866
vn 0.0000 0.8090 -0.5878
vn 0.4676 0.8839 0.0000
vn 0.0000 0.8090 0.5878
vn -0.4676 0.8839 0.0000
vn 0.0000 -0.8090 -0.5878
vn -0.4676 -0.8839 0.0000
vn 0.0000 -0.8090 0.5878
vn 0.4676 -0.8839 0.0000
vn 0.7604 -0.6495 0.0000
vn -0.7604 -0.6495 0.0000
vn -0.7604 0.6495 0.0000
vn 0.7604 0.6495 0.0000
usemtl None
s off
f 33/1/1 1/2/1 2/3/1
f 36/4/2 4/5/2 3/6/2
f 37/7/3 3/8/3 4/9/3
f 40/10/4 8/11/4 7/12/4
f 41/13/2 7/14/2 8/15/2
f 44/16/1 6/17/1 5/18/1
f 45/19/4 5/20/4 6/21/4
f 48/22/3 2/23/3 1/24/3
f 49/25/2 3/8/2 7/12/2
f 51/26/4 7/14/4 5/18/4
f 52/27/1 5/20/1 1/24/1
f 50/28/3 1/2/3 3/6/3
f 53/29/2 8/11/2 4/9/2
f 55/30/3 4/5/3 2/3/3
f 56/31/1 2/23/1 6/21/1
f 54/32/4 6/17/4 8/15/4
f 9/33/3 33/34/3 10/35/3
f 10/36/3 35/37/3 11/38/3
f 11/39/3 36/40/3 12/41/3
f 12/42/3 34/43/3 9/44/3
f 13/45/2 37/46/2 14/47/2
f 14/48/2 39/49/2 15/50/2
f 15/51/2 40/52/2 16/53/2
f 16/54/2 38/55/2 13/56/2
f 17/57/4 41/58/4 18/59/4
f 18/60/4 43/61/4 19/62/4
f 19/63/4 44/64/4 20/65/4
f 20/66/4 42/67/4 17/68/4
f 21/69/1 45/70/1 22/71/1
f 22/72/1 47/73/1 23/74/1
f 23/75/1 48/76/1 24/77/1
f 24/78/1 46/79/1 21/80/1
f 25/81/5 49/82/5 26/83/5
f 26/84/5 51/85/5 27/86/5
f 27/87/5 52/88/5 28/89/5
f 28/90/5 50/91/5 25/92/5
f 29/93/6 53/94/6 30/95/6
f 30/96/6 55/97/6 31/98/6
f 31/99/6 56/100/6 32/101/6
f 32/102/6 54/103/6 29/104/6
f 58/105/3 60/106/3 57/107/3
f 58/105/1 9/108/1 10/35/1
f 59/109/6 10/110/6 11/38/6
f 60/111/2 11/112/2 12/41/2
f 57/113/5 12/114/5 9/44/5
f 62/115/2 64/116/2 61/117/2
f 62/115/3 13/118/3 14/47/3
f 63/119/6 14/120/6 15/50/6
f 64/121/4 15/122/4 16/53/4
f 61/123/5 16/124/5 13/56/5
f 66/125/4 68/126/4 65/127/4
f 66/125/2 17/128/2 18/59/2
f 67/129/6 18/130/6 19/62/6
f 68/131/1 19/132/1 20/65/1
f 65/133/5 20/134/5 17/68/5
f 70/135/1 72/136/1 69/137/1
f 70/135/4 21/138/4 22/71/4
f 71/139/6 22/140/6 23/74/6
f 72/141/3 23/142/3 24/77/3
f 69/143/5 24/144/5 21/80/5
f 122/145/2 113/146/2 114/147/2
f 74/148/2 25/149/2 26/83/2
f 75/150/4 26/151/4 27/86/4
f 76/152/1 27/153/1 28/89/1
f 73/154/3 28/155/3 25/92/3
f 122/145/5 124/156/5 121/157/5
f 78/158/2 29/159/2 30/95/2
f 79/160/3 30/161/3 31/98/3
f 80/162/1 31/163/1 32/101/1
f 77/164/4 32/165/4 29/104/4
f 82/166/6 84/167/6 81/168/6
f 35/169/7 81/168/7 4/9/7
f 83/170/8 35/169/8 33/171/8
f 84/167/9 33/171/9 2/23/9
f 81/168/10 2/23/10 4/9/10
f 86/172/5 88/173/5 85/174/5
f 34/175/11 85/174/11 1/24/11
f 87/176/12 34/175/12 36/177/12
f 88/173/13 36/177/13 3/8/13
f 85/174/14 3/8/14 1/24/14
f 90/178/6 92/179/6 89/180/6
f 39/181/14 89/180/14 8/15/14
f 91/182/15 39/181/15 37/183/15
f 92/179/16 37/183/16 4/5/16
f 89/180/11 4/5/11 8/15/11
f 94/184/5 96/185/5 93/186/5
f 38/187/17 93/186/17 3/6/17
f 95/188/18 38/187/18 40/189/18
f 96/185/10 40/189/10 7/14/10
f 93/186/9 7/14/9 3/6/9
f 98/190/6 100/191/6 97/192/6
f 43/193/9 97/192/9 6/21/9
f 99/194/19 43/193/19 41/195/19
f 100/191/7 41/195/7 8/11/7
f 97/192/17 8/11/17 6/21/17
f 102/196/5 104/197/5 101/198/5
f 42/199/13 101/198/13 7/12/13
f 103/200/20 42/199/20 44/201/20
f 104/197/11 44/201/11 5/20/11
f 101/198/16 5/20/16 7/12/16
f 106/202/6 108/203/6 105/204/6
f 47/205/16 105/204/16 2/3/16
f 107/206/21 47/205/21 45/207/21
f 108/203/14 45/207/14 6/17/14
f 105/204/13 6/17/13 2/3/13
f 110/208/5 112/209/5 109/210/5
f 46/211/10 109/210/10 5/18/10
f 111/212/22 46/211/22 48/213/22
f 112/209/17 48/213/17 1/2/17
f 109/210/7 1/2/7 5/18/7
f 74/148/23 113/146/23 73/214/23
f 115/215/24 74/148/24 75/216/24
f 76/217/25 115/215/25 75/216/25
f 113/146/26 76/217/26 73/214/26
f 78/158/27 117/218/27 77/219/27
f 119/220/28 78/158/28 79/221/28
f 80/222/29 119/220/29 79/221/29
f 117/218/30 80/222/30 77/219/30
f 123/223/31 114/147/31 115/215/31
f 124/156/1 115/215/1 116/224/1
f 121/157/32 116/224/32 113/146/32
f 126/225/6 128/226/6 125/227/6
f 126/225/2 117/218/2 118/228/2
f 127/229/33 118/228/33 119/220/33
f 128/226/1 119/220/1 120/230/1
f 125/227/34 120/230/34 117/218/34
f 33/1/1 34/231/1 1/2/1
f 36/4/2 35/232/2 4/5/2
f 37/7/3 38/233/3 3/8/3
f 40/10/4 39/234/4 8/11/4
f 41/13/2 42/235/2 7/14/2
f 44/16/1 43/236/1 6/17/1
f 45/19/4 46/237/4 5/20/4
f 48/22/3 47/238/3 2/23/3
f 49/25/2 50/239/2 3/8/2
f 51/26/4 49/240/4 7/14/4
f 52/27/1 51/241/1 5/20/1
f 50/28/3 52/242/3 1/2/3
f 53/29/2 54/243/2 8/11/2
f 55/30/3 53/244/3 4/5/3
f 56/31/1 55/245/1 2/23/1
f 54/32/4 56/246/4 6/17/4
f 9/33/3 34/231/3 33/34/3
f 10/36/3 33/171/3 35/37/3
f 11/39/3 35/232/3 36/40/3
f 12/42/3 36/177/3 34/43/3
f 13/45/2 38/233/2 37/46/2
f 14/48/2 37/183/2 39/49/2
f 15/51/2 39/234/2 40/52/2
f 16/54/2 40/189/2 38/55/2
f 17/57/4 42/235/4 41/58/4
f 18/60/4 41/195/4 43/61/4
f 19/63/4 43/236/4 44/64/4
f 20/66/4 44/201/4 42/67/4
f 21/69/1 46/237/1 45/70/1
f 22/72/1 45/207/1 47/73/1
f 23/75/1 47/238/1 48/76/1
f 24/78/1 48/213/1 46/79/1
f 25/81/5 50/239/5 49/82/5
f 26/84/5 49/240/5 51/85/5
f 27/87/5 51/241/5 52/88/5
f 28/90/5 52/242/5 50/91/5
f 29/93/6 54/243/6 53/94/6
f 30/96/6 53/244/6 55/97/6
f 31/99/6 55/245/6 56/100/6
f 32/102/6 56/246/6 54/103/6
f 58/105/3 59/247/3 60/106/3
f 58/105/1 57/248/1 9/108/1
f 59/109/6 58/249/6 10/110/6
f 60/111/2 59/247/2 11/112/2
f 57/113/5 60/250/5 12/114/5
f 62/115/2 63/251/2 64/116/2
f 62/115/3 61/252/3 13/118/3
f 63/119/6 62/253/6 14/120/6
f 64/121/4 63/251/4 15/122/4
f 61/123/5 64/254/5 16/124/5
f 66/125/4 67/255/4 68/126/4
f 66/125/2 65/256/2 17/128/2
f 67/129/6 66/257/6 18/130/6
f 68/131/1 67/255/1 19/132/1
f 65/133/5 68/258/5 20/134/5
f 70/135/1 71/259/1 72/136/1
f 70/135/4 69/260/4 21/138/4
f 71/139/6 70/261/6 22/140/6
f 72/141/3 71/259/3 23/142/3
f 69/143/5 72/262/5 24/144/5
f 122/145/2 121/157/2 113/146/2
f 74/148/2 73/263/2 25/149/2
f 75/150/4 74/264/4 26/151/4
f 76/152/1 75/216/1 27/153/1
f 73/154/3 76/265/3 28/155/3
f 122/145/5 123/223/5 124/156/5
f 78/158/2 77/266/2 29/159/2
f 79/160/3 78/267/3 30/161/3
f 80/162/1 79/221/1 31/163/1
f 77/164/4 80/268/4 32/165/4
f 82/166/6 83/170/6 84/167/6
f 35/169/7 82/166/7 81/168/7
f 83/170/8 82/166/8 35/169/8
f 84/167/9 83/170/9 33/171/9
f 81/168/10 84/167/10 2/23/10
f 86/172/5 87/176/5 88/173/5
f 34/175/11 86/172/11 85/174/11
f 87/176/12 86/172/12 34/175/12
f 88/173/13 87/176/13 36/177/13
f 85/174/14 88/173/14 3/8/14
f 90/178/6 91/182/6 92/179/6
f 39/181/14 90/178/14 89/180/14
f 91/182/15 90/178/15 39/181/15
f 92/179/16 91/182/16 37/183/16
f 89/180/11 92/179/11 4/5/11
f 94/184/5 95/188/5 96/185/5
f 38/187/17 94/184/17 93/186/17
f 95/188/18 94/184/18 38/187/18
f 96/185/10 95/188/10 40/189/10
f 93/186/9 96/185/9 7/14/9
f 98/190/6 99/194/6 100/191/6
f 43/193/9 98/190/9 97/192/9
f 99/194/19 98/190/19 43/193/19
f 100/191/7 99/194/7 41/195/7
f 97/192/17 100/191/17 8/11/17
f 102/196/5 103/200/5 104/197/5
f 42/199/13 102/196/13 101/198/13
f 103/200/20 102/196/20 42/199/20
f 104/197/11 103/200/11 44/201/11
f 101/198/16 104/197/16 5/20/16
f 106/202/6 107/206/6 108/203/6
f 47/205/16 106/202/16 105/204/16
f 107/206/21 106/202/21 47/205/21
f 108/203/14 107/206/14 45/207/14
f 105/204/13 108/203/13 6/17/13
f 110/208/5 111/212/5 112/209/5
f 46/211/10 110/208/10 109/210/10
f 111/212/22 110/208/22 46/211/22
f 112/209/17 111/212/17 48/213/17
f 109/210/7 112/209/7 1/2/7
f 74/148/23 114/147/23 113/146/23
f 115/215/24 114/147/24 74/148/24
f 76/217/25 116/224/25 115/215/25
f 113/146/26 116/224/26 76/217/26
f 78/158/27 118/228/27 117/218/27
f 119/220/28 118/228/28 78/158/28
f 80/222/29 120/230/29 119/220/29
f 117/218/30 120/230/30 80/222/30
f 123/223/31 122/145/31 114/147/31
f 124/156/1 123/223/1 115/215/1
f 121/157/32 124/156/32 116/224/32
f 126/225/6 127/229/6 128/226/6
f 126/225/2 125/227/2 117/218/2
f 127/229/33 126/225/33 118/228/33
f 128/226/1 127/229/1 119/220/1
f 125/227/34 128/226/34 120/230/34
